<svg width="102" height="27" viewBox="0 0 102 27" fill="none" xmlns="http://www.w3.org/2000/svg">
<path d="M1.511 16H1.71102C1.91102 16 2.11101 15.7 2.11101 15.3L2.411 12.9C2.411 12.5 2.31101 12.1 2.11101 12H2.011C1.811 12 1.61101 12.3 1.61101 12.7L1.31102 15.1C1.21102 15.5 1.311 16 1.511 16Z" fill="#FFC8A7"/>
<path d="M99.911 16.7L100.611 16.6C101.011 16.6 101.411 16.2 101.411 15.7L101.711 12.4C101.711 11.9 101.511 11.5 101.011 11.4L100.611 11.3L99.911 16.7Z" fill="#F7E4D9"/>
<path d="M99.611 16.9L100.611 16.8L101.311 11.2H100.011L99.611 16.9Z" fill="#EA8E56"/>
<path d="M99.811 20.2H100.911C101.211 20.2 101.411 20 101.511 19.7L101.811 17.9C101.911 17.6 101.611 17.2 101.211 17.2H99.711L99.411 19.6C99.311 20 99.511 20.2 99.811 20.2Z" fill="#FFC8A7"/>
<path d="M5.11101 20.6L15.811 21.3H16.411L17.711 21.4H91.311L97.511 20.6C98.811 20.4 99.911 19.4 100.111 18L100.811 11.4C101.011 9.7 99.811 9.4 98.111 9.3L70.011 8C69.011 7.9 68.011 7.6 67.111 6.9L58.911 0.6C58.411 0.2 57.811 0 57.111 0H33.011C30.711 0 28.411 0.9 26.711 2.6L23.111 6C22.711 6.4 22.111 6.7 21.511 6.8L3.61101 10.5C2.71101 10.7 2.111 11.4 2.011 12.3L1.511 16.4C1.411 18.6 3.01101 20.5 5.11101 20.6Z" fill="#F37021"/>
<path opacity="0.2" d="M71.811 8.89999L98.011 10.2C98.611 10.2 100.211 10.3 100.011 11.6L99.311 18C99.711 10.7 98.911 11.1 95.811 10.9L71.811 8.89999Z" fill="#FFDDC8"/>
<path opacity="0.2" d="M2.41101 16.5L2.91101 12.4C3.01101 11.9 3.31101 11.5 3.91101 11.3L21.611 7.39999C21.711 7.39999 21.911 7.49999 21.911 7.49999C4.61101 11.7 3.81101 11.4 2.41101 16.5Z" fill="#FFDDC8"/>
<path d="M57.111 0.799988C57.611 0.799988 58.111 0.999988 58.511 1.29999L66.711 7.59999C67.111 7.89999 67.411 8.09999 67.811 8.29999L68.911 12.8L67.811 20.7H46.011L46.811 12.5L46.011 0.899988H57.111V0.799988Z" fill="white"/>
<path d="M46.911 1.60001H57.111C57.411 1.60001 57.811 1.70001 58.011 1.90001L66.211 8.20001C66.311 8.20001 66.311 8.30001 66.411 8.30001H47.411L46.911 1.60001Z" fill="#FDCFB4"/>
<path d="M30.611 2.09999C31.111 1.29999 32.011 0.899994 33.011 0.899994H45.311L46.111 12.5L45.311 20.7H32.411C32.111 17.2 29.611 14.3 26.311 13.2V9.29999C26.311 8.59999 26.511 7.99999 26.911 7.49999L30.611 2.09999Z" fill="white"/>
<path d="M31.211 2.50001C31.611 1.90001 32.211 1.60001 32.911 1.60001H44.411L44.911 8.40001H27.111L31.211 2.50001Z" fill="#FDCFB4"/>
<path d="M51.511 9.60001H47.911V10.8H51.511V9.60001Z" fill="#FFC8A7"/>
<path d="M30.711 9.60001H27.111V10.8H30.711V9.60001Z" fill="#FFC8A7"/>
<path d="M1.61103 16.4V16.9H3.81104C4.91104 16.9 5.81104 17.8 5.81104 18.9L1.01103 18.7C0.511025 18.7 -0.0889747 18.2 0.0110253 17.7C0.0110253 17.6 0.0110253 17.5 0.0110253 17.4C0.111025 16.8 0.511031 16.4 1.11103 16.4H1.61103Z" fill="#FFC8A7"/>
<path d="M97.711 19.7H100.611C100.911 19.7 101.111 19.5 101.111 19.3L101.311 18.5C101.411 18.2 101.111 17.8 100.811 17.8H97.911C97.611 17.8 97.411 18 97.411 18.2L97.211 19C97.111 19.4 97.411 19.7 97.711 19.7Z" fill="#FFC8A7"/>
<path d="M63.111 8.70001L64.811 9.50001L64.911 8.60001L63.511 7.20001L63.111 8.70001Z" fill="#F37021"/>
<path d="M62.611 6.10001H62.711C63.111 6.20001 63.511 6.50001 63.611 6.90001L63.811 7.80001C64.011 8.70001 63.211 9.60001 62.311 9.50001H62.111L62.611 6.10001Z" fill="#F37021"/>
<path d="M74.911 21.5H89.611L89.211 19.2C88.911 17.7 88.011 16.6 86.811 15.9C86.211 15.6 85.411 15.4 84.711 15.4H80.311C79.311 15.4 78.411 15.7 77.611 16.2C76.511 16.9 75.611 18.1 75.411 19.5L74.911 21.5Z" fill="#F8CBB0"/>
<path d="M15.811 21.3H16.411H16.911L17.711 21.4H30.411L30.011 19.1C29.711 17.7 28.811 16.5 27.611 15.8C27.011 15.5 26.211 15.3 25.411 15.3H21.011C20.011 15.3 19.111 15.6 18.311 16.1C17.111 16.8 16.311 18 16.111 19.5L15.811 21.3Z" fill="#F8CBB0"/>
<g opacity="0.75">
<path opacity="0.75" d="M53.811 1.89999L58.611 8.19999H54.811L50.011 1.89999H53.811Z" fill="white"/>
<path opacity="0.75" d="M55.511 1.89999L60.311 8.19999H59.011L54.311 1.89999H55.511Z" fill="white"/>
</g>
<g opacity="0.75">
<path opacity="0.75" d="M37.311 1.89999L42.011 8.19999H38.311L33.511 1.89999H37.311Z" fill="white"/>
<path opacity="0.75" d="M39.011 1.89999L43.711 8.19999H42.511L37.811 1.89999H39.011Z" fill="white"/>
</g>
<path opacity="0.2" d="M0.0110168 17.5C0.0110168 17.6 0.0110168 17.7 0.0110168 17.8C0.0110168 18.3 0.511017 18.8 1.01102 18.8L2.11102 18.9C2.71102 19.9 3.81102 20.6 5.01102 20.6L15.711 21.3H16.311L17.611 21.4H30.311H74.811H89.511H91.211L97.411 20.6C98.111 20.5 98.811 20.2 99.211 19.6H99.311C99.311 19.9 99.511 20.1 99.711 20.1H100.811C101.111 20.1 101.311 19.9 101.411 19.6L101.711 17.8C101.711 17.7 101.711 17.7 101.711 17.6L1.41101 13.2L1.21103 14.9C1.11103 15.4 1.31102 15.8 1.51102 15.8H1.61102V16.2H1.21103C0.611029 16.4 0.111017 16.9 0.0110168 17.5Z" fill="#8E644A"/>
<path d="M78.211 20.3C78.211 22.5 80.011 24.3 82.211 24.3C84.411 24.3 86.211 22.5 86.211 20.3C86.211 18.1 84.411 16.3 82.211 16.3C80.011 16.3 78.211 18.1 78.211 20.3Z" fill="#FFC8A7"/>
<path d="M75.911 20.3C75.911 20.7 75.911 21.1 76.011 21.5C76.611 24.4 79.111 26.6 82.211 26.6C85.311 26.6 87.811 24.4 88.411 21.5C88.511 21.1 88.511 20.7 88.511 20.3C88.511 18.6 87.811 17 86.711 15.9C86.111 15.6 85.311 15.4 84.611 15.4H80.211C79.211 15.4 78.311 15.7 77.511 16.2C76.511 17.3 75.911 18.7 75.911 20.3ZM82.311 24.2C80.611 24.2 79.111 23.1 78.611 21.5C78.511 21.1 78.411 20.7 78.411 20.3C78.411 18.2 80.111 16.4 82.311 16.4C84.411 16.4 86.211 18.1 86.211 20.3C86.211 20.7 86.111 21.1 86.011 21.5C85.511 23 84.011 24.2 82.311 24.2Z" fill="#8E827B"/>
<path d="M79.311 20.3C79.311 21.9 80.611 23.2 82.211 23.2C83.811 23.2 85.111 21.9 85.111 20.3C85.111 18.7 83.811 17.4 82.211 17.4C80.611 17.4 79.311 18.7 79.311 20.3Z" fill="white"/>
<path d="M80.511 20.3C80.511 21.3 81.311 22.1 82.311 22.1C83.311 22.1 84.111 21.3 84.111 20.3C84.111 19.3 83.311 18.5 82.311 18.5C81.311 18.5 80.511 19.3 80.511 20.3Z" fill="#FFC8A7"/>
<path opacity="0.5" d="M83.811 17.1C84.411 17.4 84.911 17.9 85.311 18.4L82.311 20.2L83.811 17.1Z" fill="white"/>
<path opacity="0.5" d="M82.311 20.3L80.711 23.5C80.111 23.2 79.611 22.7 79.211 22.1L82.311 20.3Z" fill="white"/>
<path d="M19.111 20.3C19.111 22.5 20.911 24.3 23.111 24.3C25.311 24.3 27.111 22.5 27.111 20.3C27.111 18.1 25.311 16.3 23.111 16.3C20.911 16.3 19.111 18.1 19.111 20.3Z" fill="#FFC8A7"/>
<path d="M16.811 20.3C16.811 20.7 16.811 21.1 16.911 21.4C17.411 24.3 20.011 26.6 23.111 26.6C26.211 26.6 28.711 24.4 29.311 21.5C29.411 21.1 29.411 20.7 29.411 20.3C29.411 18.6 28.711 17 27.611 15.9C27.011 15.6 26.211 15.4 25.411 15.4H21.011C20.011 15.4 19.111 15.7 18.311 16.2C17.411 17.2 16.811 18.7 16.811 20.3ZM23.111 24.2C21.411 24.2 19.911 23.1 19.411 21.5C19.311 21.1 19.211 20.7 19.211 20.3C19.211 18.2 20.911 16.4 23.111 16.4C25.211 16.4 27.011 18.1 27.011 20.3C27.011 20.7 26.911 21.1 26.811 21.5C26.311 23 24.811 24.2 23.111 24.2Z" fill="#8E827B"/>
<path d="M20.111 20.3C20.111 21.9 21.411 23.2 23.011 23.2C24.611 23.2 25.911 21.9 25.911 20.3C25.911 18.7 24.611 17.4 23.011 17.4C21.511 17.4 20.111 18.7 20.111 20.3Z" fill="white"/>
<path d="M21.311 20.3C21.311 21.3 22.111 22.1 23.111 22.1C24.111 22.1 24.911 21.3 24.911 20.3C24.911 19.3 24.111 18.5 23.111 18.5C22.111 18.5 21.311 19.3 21.311 20.3Z" fill="#FFC8A7"/>
<path opacity="0.5" d="M24.611 17.1C25.211 17.4 25.711 17.9 26.111 18.4L23.111 20.2L24.611 17.1Z" fill="white"/>
<path opacity="0.5" d="M23.111 20.3L21.511 23.5C20.911 23.2 20.411 22.7 20.011 22.1L23.111 20.3Z" fill="white"/>
</svg>
